<svg width="24" height="24" viewBox="0 0 33 32" fill="none"
    xmlns="http://www.w3.org/2000/svg">
    <path d="M0 3C0 1.34315 1.34315 0 3 0H30C31.6569 0 33 1.34315 33 3V29C33 30.6569 31.6569 32 30 32H3C1.34314 32 0 30.6569 0 29V3Z" fill="#D46DFB"/>
    <path d="M18.6673 27.1528C18.406 28.0895 17.4187 28.3077 16.4603 28.3077C15.502 28.3077 14.5147 28.0895 14.2534 27.1528C13.8649 25.7518 13.2079 22.2414 13.2079 20.6079C13.2079 18.8754 14.7905 18.4519 16.4603 18.4519C18.1301 18.4519 19.7127 18.8754 19.7127 20.6079C19.7127 22.2316 19.0586 25.7417 18.6673 27.1528ZM13.0487 17.2965C12.0988 16.3943 11.5263 15.1197 11.5859 13.7189C11.6903 11.2686 13.7404 9.28602 16.2676 9.19116C19.0451 9.08688 21.3389 11.2477 21.3389 13.9183C21.3389 15.2403 20.7767 16.4372 19.872 17.2964C19.7361 17.4256 19.75 17.6407 19.9039 17.7492C20.3771 18.0825 20.7404 18.5053 20.983 18.999C21.0715 19.1791 21.3132 19.2287 21.4632 19.0922C22.9281 17.7596 23.829 15.8505 23.776 13.7423C23.6817 9.98691 20.5442 6.93153 16.6719 6.82503C12.5406 6.7114 9.14242 9.93729 9.14242 13.9183C9.14242 15.9565 10.0334 17.7965 11.4572 19.092C11.6073 19.2286 11.8491 19.1792 11.9376 18.999C12.1802 18.5052 12.5435 18.0825 13.0167 17.7492C13.1707 17.6408 13.1847 17.4256 13.0487 17.2965V17.2965ZM16.4603 3.07693C10.1692 3.07693 5.07692 8.01394 5.07692 14.1154C5.07692 18.5501 7.75009 22.2783 11.4668 24.0405C11.687 24.1449 11.9378 23.9645 11.9006 23.7296C11.7795 22.9652 11.6799 22.2046 11.6258 21.5446C11.6184 21.4541 11.5674 21.3728 11.4897 21.3223C9.08093 19.7549 7.49722 17.0835 7.51637 14.0612C7.54646 9.31874 11.5458 5.45474 16.4365 5.44237C21.3792 5.42985 25.4044 9.32534 25.4044 14.1154C25.4044 17.1673 23.7702 19.8559 21.3059 21.4021C21.2551 22.0938 21.1499 22.9095 21.0201 23.7295C20.9829 23.9645 21.2337 24.1449 21.4538 24.0405C25.1619 22.2822 27.8437 18.5597 27.8437 14.1154C27.8437 8.01492 22.7525 3.07693 16.4603 3.07693ZM16.4603 10.9615C14.6641 10.9615 13.2079 12.3736 13.2079 14.1154C13.2079 15.8572 14.6641 17.2692 16.4603 17.2692C18.2566 17.2692 19.7127 15.8572 19.7127 14.1154C19.7127 12.3736 18.2566 10.9615 16.4603 10.9615Z" fill="white"/>
</svg>
