<svg width="24" height="24" viewBox="0 0 33 32" fill="none"
    xmlns="http://www.w3.org/2000/svg">
    <path d="M33 16C33 24.8367 25.6129 32 16.5 32C7.38711 32 0 24.8367 0 16C0 7.16326 7.38711 0 16.5 0C25.6129 0 33 7.16326 33 16Z" fill="#F43E37"/>
    <path d="M3.66678 16.0001C3.66678 9.12723 9.41246 3.55566 16.5001 3.55566C23.5878 3.55566 29.3334 9.12723 29.3334 16.0001H26.1251C26.1251 10.8455 21.8159 6.66678 16.5001 6.66678C11.1844 6.66678 6.87511 10.8455 6.87511 16.0001C6.87511 21.1548 11.1844 25.3334 16.5001 25.3334V28.4446C9.41246 28.4446 3.66678 22.873 3.66678 16.0001ZM16.5001 23.4668C12.2475 23.4668 8.80011 20.1238 8.80011 16.0001C8.80011 11.8764 12.2475 8.53344 16.5001 8.53344C20.7527 8.53344 24.2001 11.8764 24.2001 16.0001H21.4001C21.4001 13.3759 19.2063 11.2486 16.5001 11.2486C13.7939 11.2486 11.6001 13.3759 11.6001 16.0001C11.6001 18.6243 13.7939 20.7516 16.5001 20.7516V23.4668Z" fill="white"/>
</svg>